# Blender 4.1.0
# www.blender.org
mtllib aruco_1.mtl
o Cube
v -0.050000 0.050000 -0.005000
v -0.050000 0.050000 0.005000
v 0.050000 0.050000 -0.005000
v 0.050000 0.050000 0.005000
v -0.050000 -0.050000 -0.005000
v -0.050000 -0.050000 0.005000
v 0.050000 -0.050000 -0.005000
v 0.050000 -0.050000 0.005000
vn -0.0000 1.0000 -0.0000
vn 1.0000 -0.0000 -0.0000
vn -0.0000 -1.0000 -0.0000
vn -1.0000 -0.0000 -0.0000
vn -0.0000 -0.0000 -1.0000
vn -0.0000 -0.0000 1.0000
vt 0.430797 0.510596
vt 0.455797 0.510596
vt 0.455797 0.535596
vt 0.430797 0.535596
vt 0.455797 0.560596
vt 0.430797 0.560596
vt 0.455797 0.585596
vt 0.430797 0.585596
vt 0.455797 0.610596
vt 0.430797 0.610596
vt 0.405796 0.560596
vt 0.405796 0.585596
vt 0.999900 0.000100
vt 0.999900 0.999900
vt 0.000100 0.999900
vt 0.000100 0.000100
s 0
usemtl aruco
f 1/1/1 2/2/1 4/3/1 3/4/1
f 3/4/2 4/3/2 8/5/2 7/6/2
f 7/6/3 8/5/3 6/7/3 5/8/3
f 5/8/4 6/7/4 2/9/4 1/10/4
f 3/11/5 7/6/5 5/8/5 1/12/5
f 8/13/6 4/14/6 2/15/6 6/16/6
