# Blender 4.1.0
# www.blender.org
mtllib field.mtl
o Field_Assembly_v10
v -1.219199 0.647700 -0.000247
v -1.219199 0.647700 0.088653
v 1.219199 0.647700 -0.000247
v 1.219199 0.647700 0.088653
v -1.219199 0.609600 -0.000247
v 1.219199 0.609600 -0.000247
v -1.219199 0.609600 0.088653
v 1.219199 0.609600 0.088653
v -1.181099 0.609600 -0.000247
v -1.181099 0.609600 0.088653
v -1.181099 -0.609599 -0.000247
v -1.181099 -0.609599 0.088653
v -1.219199 0.609600 -0.000247
v -1.219199 -0.609599 -0.000247
v -1.219199 0.609600 0.088653
v -1.219199 -0.609599 0.088653
v -1.219199 -0.609599 -0.000247
v -1.219199 -0.609599 0.088653
v 1.219199 -0.609599 -0.000247
v 1.219199 -0.609599 0.088653
v -1.219199 -0.647699 -0.000247
v 1.219199 -0.647699 -0.000247
v -1.219199 -0.647699 0.088653
v 1.219199 -0.647699 0.088653
v 1.181099 -0.609599 -0.000247
v 1.181099 -0.609599 0.088653
v 1.181099 0.609600 -0.000247
v 1.181099 0.609600 0.088653
v 1.219199 -0.609599 -0.000247
v 1.219199 0.609600 -0.000247
vn -0.0000 1.0000 -0.0000
vn -0.0000 -0.0000 -1.0000
vn -0.0000 -1.0000 -0.0000
vn -0.0000 -0.0000 1.0000
vn 1.0000 -0.0000 -0.0000
vn -1.0000 -0.0000 -0.0000
s 0
usemtl wood
f 1//1 2//1 3//1
f 3//1 2//1 4//1
f 5//2 1//2 6//2
f 6//2 1//2 3//2
f 7//3 5//3 8//3
f 8//3 5//3 6//3
f 2//4 7//4 4//4
f 4//4 7//4 8//4
f 8//5 6//5 4//5
f 4//5 6//5 3//5
f 7//6 2//6 5//6
f 5//6 2//6 1//6
f 9//5 10//5 11//5
f 11//5 10//5 12//5
f 13//2 9//2 14//2
f 14//2 9//2 11//2
f 15//6 13//6 16//6
f 16//6 13//6 14//6
f 10//4 15//4 12//4
f 12//4 15//4 16//4
f 16//3 14//3 12//3
f 12//3 14//3 11//3
f 15//1 10//1 13//1
f 13//1 10//1 9//1
f 17//1 18//1 19//1
f 19//1 18//1 20//1
f 21//2 17//2 22//2
f 22//2 17//2 19//2
f 23//3 21//3 24//3
f 24//3 21//3 22//3
f 18//4 23//4 20//4
f 20//4 23//4 24//4
f 24//5 22//5 20//5
f 20//5 22//5 19//5
f 23//6 18//6 21//6
f 21//6 18//6 17//6
f 25//6 26//6 27//6
f 27//6 26//6 28//6
f 29//2 25//2 30//2
f 30//2 25//2 27//2
f 20//5 29//5 8//5
f 8//5 29//5 30//5
f 26//4 20//4 28//4
f 28//4 20//4 8//4
f 8//1 30//1 28//1
f 28//1 30//1 27//1
f 20//3 26//3 29//3
f 29//3 26//3 25//3
